# xmcd
#
# Track frame offsets:
#	150
#	14865
#	30455
#	47015
#	64233
#	83748
#	98928
#	119605
#	139243
#	164133
#	180785
#
# Disc length: 2711 seconds
#
# Revision: 8
# Processed by: cddbd v1.5.1PL0 Copyright (c) Steve Scherf et al.
# Submitted via: CDmax 2.0
#
DISCID=970a950b
DTITLE=Doobie Brothers - Best Of The Doobies
DYEAR=1976
DGENRE=Rock
TTITLE0=China Grove
TTITLE1=Long Train Runnin'
TTITLE2=Takin' It To The Streets
TTITLE3=Listen To The Music
TTITLE4=Black Water
TTITLE5=Rockin' Down The Highway
TTITLE6=Jesus Is Just Alright
TTITLE7=It Keeps You Runnin'
TTITLE8=South City Midnight Lady
TTITLE9=Take Me In Your Arms
TTITLE10=Without You
EXTD=ID3G:   0 YEAR: 1976
EXTT0=
EXTT1=
EXTT2=
EXTT3=
EXTT4=
EXTT5=
EXTT6=
EXTT7=
EXTT8=
EXTT9=
EXTT10=
PLAYORDER=
